<svg width="48" height="48" viewBox="0 0 48 48" fill="none" xmlns="http://www.w3.org/2000/svg">
<g clip-path="url(#clip0_52_235)">
<path d="M24 48C37.2548 48 48 37.2548 48 24C48 10.7452 37.2548 0 24 0C10.7452 0 0 10.7452 0 24C0 37.2548 10.7452 48 24 48Z" fill="#D2483D"/>
<path d="M40 24L14.4031 36.8034L25.4151 47.9573C35.6215 47.3637 44.1149 40.3932 46.9705 30.9705L40 24Z" fill="#9E231D"/>
<path d="M23.5 28.0136C26.7217 28.0136 29.3334 25.4019 29.3334 22.1802C29.3334 18.9585 26.7217 16.3468 23.5 16.3468C20.2783 16.3468 17.6666 18.9585 17.6666 22.1802C17.6666 25.4019 20.2783 28.0136 23.5 28.0136Z" fill="#E39D46"/>
<path d="M23.5 28.6599C19.9271 28.6599 17.0201 25.7531 17.0201 22.18C17.0201 18.607 19.927 15.7002 23.5 15.7002C27.073 15.7002 29.9798 18.607 29.9798 22.18C29.9798 25.7531 27.073 28.6599 23.5 28.6599ZM23.5 16.9933C20.64 16.9933 18.3131 19.3201 18.3131 22.1802C18.3131 25.0403 20.6399 27.3671 23.5 27.3671C26.3601 27.3671 28.6869 25.0403 28.6869 22.1802C28.6869 19.3201 26.3601 16.9933 23.5 16.9933Z" fill="#F7CA68"/>
<path d="M23.4999 25.0969C25.1108 25.0969 26.4166 23.791 26.4166 22.1802C26.4166 20.5694 25.1108 19.2635 23.4999 19.2635C21.8891 19.2635 20.5833 20.5694 20.5833 22.1802C20.5833 23.791 21.8891 25.0969 23.4999 25.0969Z" fill="#E39D46"/>
<path d="M23.4999 25.7432C21.5353 25.7432 19.9368 24.1446 19.9368 22.18C19.9368 20.2154 21.5353 18.6169 23.4999 18.6169C25.4645 18.6169 27.0631 20.2154 27.0631 22.18C27.0631 24.1446 25.4647 25.7432 23.4999 25.7432ZM23.4999 19.9098C22.2482 19.9098 21.2297 20.9283 21.2297 22.18C21.2297 23.4318 22.2482 24.4503 23.4999 24.4503C24.7516 24.4503 25.7701 23.4318 25.7701 22.18C25.7701 20.9283 24.7516 19.9098 23.4999 19.9098Z" fill="#F7CA68"/>
<path d="M23.4999 16.3468C23.487 16.3468 23.4742 16.3478 23.4613 16.3478V28.0125C23.4742 28.0126 23.487 28.0134 23.4999 28.0134C26.7216 28.0134 29.3333 25.4017 29.3333 22.1801C29.3333 18.9586 26.7216 16.3468 23.4999 16.3468Z" fill="#C46116"/>
<path d="M23.4999 15.7004C23.487 15.7004 23.4742 15.7013 23.4613 15.7013V16.9943C23.4742 16.9941 23.487 16.9933 23.4999 16.9933C26.3599 16.9933 28.6868 19.3201 28.6868 22.1802C28.6868 25.0403 26.3601 27.3671 23.4999 27.3671C23.487 27.3671 23.4742 27.3663 23.4613 27.3661V28.6591C23.4742 28.6591 23.487 28.66 23.4999 28.66C27.0728 28.66 29.9798 25.7532 29.9798 22.1802C29.9798 18.6072 27.0729 15.7004 23.4999 15.7004Z" fill="#D89221"/>
<path d="M23.4999 19.2635C23.4868 19.2635 23.4742 19.2653 23.4613 19.2655V25.0949C23.4744 25.0951 23.4868 25.0969 23.4999 25.0969C25.1108 25.0969 26.4166 23.791 26.4166 22.1802C26.4166 20.5694 25.1108 19.2635 23.4999 19.2635Z" fill="#C46116"/>
<path d="M23.4999 18.6169C23.487 18.6169 23.4742 18.6177 23.4613 18.6179V19.9118C23.4742 19.9116 23.4868 19.9098 23.4999 19.9098C24.7516 19.9098 25.7702 20.9283 25.7702 22.18C25.7702 23.4318 24.7516 24.4503 23.4999 24.4503C23.4868 24.4503 23.4742 24.4485 23.4613 24.4483V25.7422C23.4742 25.7424 23.487 25.7432 23.4999 25.7432C25.4645 25.7432 27.0631 24.1446 27.0631 22.18C27.0631 20.2154 25.4647 18.6169 23.4999 18.6169Z" fill="#D89221"/>
<path d="M16.0001 29.3333C18.9456 29.3333 21.3334 26.9455 21.3334 24C21.3334 21.0545 18.9456 18.6667 16.0001 18.6667C13.0546 18.6667 10.6667 21.0545 10.6667 24C10.6667 26.9455 13.0546 29.3333 16.0001 29.3333Z" fill="#E39D46"/>
<path d="M16.0001 29.9798C12.7028 29.9798 10.0203 27.2973 10.0203 24C10.0203 20.7027 12.7028 18.0202 16.0001 18.0202C19.2974 18.0202 21.9799 20.7027 21.9799 24C21.9799 27.2973 19.2974 29.9798 16.0001 29.9798ZM16.0001 19.3131C13.4158 19.3131 11.3132 21.4158 11.3132 24C11.3132 26.5842 13.4158 28.6869 16.0001 28.6869C18.5843 28.6869 20.6869 26.5842 20.6869 24C20.6869 21.4158 18.5843 19.3131 16.0001 19.3131Z" fill="#F7CA68"/>
<path d="M16 26.6667C17.4728 26.6667 18.6667 25.4728 18.6667 24C18.6667 22.5272 17.4728 21.3333 16 21.3333C14.5273 21.3333 13.3334 22.5272 13.3334 24C13.3334 25.4728 14.5273 26.6667 16 26.6667Z" fill="#E39D46"/>
<path d="M16 27.3131C14.1731 27.3131 12.6869 25.8269 12.6869 24C12.6869 22.1731 14.1731 20.6869 16 20.6869C17.8269 20.6869 19.3132 22.1731 19.3132 24C19.3132 25.8269 17.8269 27.3131 16 27.3131ZM16 21.9798C14.886 21.9798 13.9798 22.886 13.9798 24C13.9798 25.114 14.886 26.0202 16 26.0202C17.114 26.0202 18.0202 25.114 18.0202 24C18.0202 22.886 17.114 21.9798 16 21.9798Z" fill="#F7CA68"/>
<path d="M30.6667 32C34.3486 32 37.3333 29.0152 37.3333 25.3333C37.3333 21.6514 34.3486 18.6667 30.6667 18.6667C26.9848 18.6667 24 21.6514 24 25.3333C24 29.0152 26.9848 32 30.6667 32Z" fill="#E39D46"/>
<path d="M30.6666 32.6465C26.6342 32.6465 23.3535 29.3658 23.3535 25.3333C23.3535 21.3008 26.6342 18.0202 30.6666 18.0202C34.6991 18.0202 37.9798 21.3008 37.9798 25.3333C37.9798 29.3658 34.6991 32.6465 30.6666 32.6465ZM30.6666 19.3131C27.3471 19.3131 24.6464 22.0137 24.6464 25.3333C24.6464 28.6529 27.3471 31.3535 30.6666 31.3535C33.9862 31.3535 36.6868 28.6529 36.6868 25.3333C36.6868 22.0137 33.9862 19.3131 30.6666 19.3131Z" fill="#F7CA68"/>
<path d="M30.6667 29.3737C32.8982 29.3737 34.7072 27.5648 34.7072 25.3333C34.7072 23.1019 32.8982 21.2929 30.6667 21.2929C28.4353 21.2929 26.6263 23.1019 26.6263 25.3333C26.6263 27.5648 28.4353 29.3737 30.6667 29.3737Z" fill="#E39D46"/>
<path d="M30.6667 30.0202C28.0825 30.0202 25.9799 27.9176 25.9799 25.3333C25.9799 22.7491 28.0825 20.6465 30.6667 20.6465C33.251 20.6465 35.3536 22.7491 35.3536 25.3333C35.3536 27.9176 33.251 30.0202 30.6667 30.0202ZM30.6667 21.9394C28.7954 21.9394 27.2728 23.462 27.2728 25.3333C27.2728 27.2047 28.7954 28.7273 30.6667 28.7273C32.5381 28.7273 34.0607 27.2047 34.0607 25.3333C34.0607 23.462 32.5381 21.9394 30.6667 21.9394Z" fill="#F7CA68"/>
<path d="M30.6667 26.6667C31.4031 26.6667 32 26.0697 32 25.3333C32 24.597 31.4031 24 30.6667 24C29.9303 24 29.3334 24.597 29.3334 25.3333C29.3334 26.0697 29.9303 26.6667 30.6667 26.6667Z" fill="#E67E22"/>
<path d="M30.6667 27.3131C29.575 27.3131 28.6869 26.425 28.6869 25.3333C28.6869 24.2416 29.575 23.3535 30.6667 23.3535C31.7584 23.3535 32.6465 24.2416 32.6465 25.3333C32.6465 26.425 31.7584 27.3131 30.6667 27.3131ZM30.6667 24.6465C30.2879 24.6465 29.9798 24.9545 29.9798 25.3333C29.9798 25.7122 30.2879 26.0202 30.6667 26.0202C31.0455 26.0202 31.3536 25.7122 31.3536 25.3333C31.3536 24.9545 31.0455 24.6465 30.6667 24.6465Z" fill="#F7CA68"/>
<path d="M40 24C40 32.8365 32.8365 40 24 40C15.1635 40 8 32.8365 8 24H40Z" fill="#F0DEB4"/>
<path d="M23.4613 24V39.99C23.6402 39.996 23.8196 40 24 40C32.8365 40 40 32.8365 40 24H23.4613Z" fill="#D5C295"/>
<path d="M32 19.3131C31.643 19.3131 31.3535 19.0237 31.3535 18.6667V8C31.3535 7.64299 31.643 7.35354 32 7.35354C32.357 7.35354 32.6464 7.64299 32.6464 8V18.6667C32.6464 19.0237 32.357 19.3131 32 19.3131Z" fill="#F7CA68"/>
<path d="M29.3334 21.9798C28.9763 21.9798 28.6869 21.6904 28.6869 21.3333V10.6667C28.6869 10.3097 28.9763 10.0202 29.3334 10.0202C29.6904 10.0202 29.9798 10.3097 29.9798 10.6667V21.3333C29.9798 21.6904 29.6904 21.9798 29.3334 21.9798Z" fill="#F7CA68"/>
<path d="M32.0001 11.4747H10.6667C10.2203 11.4747 9.85864 11.1131 9.85864 10.6667C9.85864 10.2203 10.2203 9.85858 10.6667 9.85858H32.0001C32.4464 9.85858 32.8081 10.2203 32.8081 10.6667C32.8081 11.1131 32.4464 11.4747 32.0001 11.4747Z" fill="#D5C295"/>
<path d="M34.6667 8.80808H13.3333C12.887 8.80808 12.5253 8.44638 12.5253 8C12.5253 7.55361 12.887 7.19192 13.3333 7.19192H34.6667C35.1131 7.19192 35.4748 7.55361 35.4748 8C35.4748 8.44638 35.1131 8.80808 34.6667 8.80808Z" fill="#D5C295"/>
<path d="M32 9.85858H23.9462V11.4747H32C32.4464 11.4747 32.8081 11.1131 32.8081 10.6667C32.8081 10.2203 32.4464 9.85858 32 9.85858Z" fill="#BCA77E"/>
<path d="M34.6667 7.19192H23.9462V8.80808H34.6667C35.113 8.80808 35.4747 8.44638 35.4747 8C35.4747 7.55361 35.113 7.19192 34.6667 7.19192Z" fill="#BCA77E"/>
</g>
<defs>
<clipPath id="clip0_52_235">
<rect width="48" height="48" fill="white"/>
</clipPath>
</defs>
</svg>
